<?xml version="1.0" encoding="utf-8"?>
<svg version="1.1" xmlns="http://www.w3.org/2000/svg" viewBox="0 0 800 471.9">
	<path fill="#D1AD54" d="M12.9,306.5c0-2.8-1.6-4.4-4.4-4.4H0v-11.9h14.3c8.7,0,12.3,3.6,12.3,11.9v42.9c0,4.6-0.4,8.2-0.4,8.2h0.4
		c3.8-9.7,17.3-25.2,40-25.2c25.2,0,34,14.3,34,39.2v48.1c0,3,1.6,4.4,4.4,4.4h8.5v11.9H99.2c-8.7,0-12.3-3.6-12.3-12.3v-48.5
		c0-15.9-2.4-30-22.1-30c-17.1,0-32,11.9-36.6,28.8c-1.2,4-1.6,8.7-1.6,13.5v48.5H12.9V306.5z M179.1,328c29.6,0,53.5,22.5,53.5,52.5
		c0,30.6-23.9,53.5-53.3,53.5c-29.6,0-53.5-22.9-53.5-53.5C125.8,350.6,149.7,328,179.1,328z M179.3,421.8
		c21.5,0,39.2-17.7,39.2-41.2c0-22.9-17.7-40-39.2-40c-21.7,0-39.4,17.1-39.4,40C139.8,404.1,157.5,421.8,179.3,421.8z M258.1,346.8
		c0-2.8-1.6-4.4-4.4-4.4h-8.5v-11.9h13.9c8.7,0,12.1,3.6,12.1,10.7c0,4-0.2,6.8-0.2,6.8h0.4c0,0,8-19.9,34.8-19.9
		c27.2,0,44.1,21.7,44.1,53.1c0,32-19.1,52.9-45.3,52.9c-24.7,0-33.2-19.1-33.2-19.1h-0.4c0,0,0.4,3.6,0.4,8.9v48.1h-13.7V346.8z
		 M303.6,422c17.9,0,32.6-15.1,32.6-40.8c0-24.7-13.1-40.6-32-40.6c-16.9,0-32.8,12.1-32.8,40.8C271.4,401.7,282.5,422,303.6,422z
		 M377.3,346.8c0-2.8-1.6-4.4-4.4-4.4h-8.5v-11.9h14.3c8.7,0,12.3,3.6,12.3,12.3v72.6c0,3,1.6,4.4,4.4,4.4h8.5v11.9h-14.3
		c-8.7,0-12.3-3.6-12.3-12.3V346.8z M376.9,290.2h13.3v17.3h-13.3V290.2z M426.8,346.8c0-2.8-1.6-4.4-4.4-4.4h-8.5v-11.9h13.9
		c8.7,0,12.1,3.6,12.1,10.7c0,4-0.2,6.8-0.2,6.8h0.4c0,0,8-19.9,34.8-19.9c27.2,0,44.1,21.7,44.1,53.1c0,32-19.1,52.9-45.3,52.9
		c-24.7,0-33.2-19.1-33.2-19.1H440c0,0,0.4,3.6,0.4,8.9v48.1h-13.7V346.8z M472.2,422c17.9,0,32.6-15.1,32.6-40.8
		c0-24.7-13.1-40.6-32-40.6c-16.9,0-32.8,12.1-32.8,40.8C440,401.7,451.1,422,472.2,422z M588.7,328c29.6,0,53.5,22.5,53.5,52.5
		c0,30.6-23.9,53.5-53.3,53.5c-29.6,0-53.5-22.9-53.5-53.5C535.4,350.6,559.4,328,588.7,328z M588.9,421.8
		c21.5,0,39.2-17.7,39.2-41.2c0-22.9-17.7-40-39.2-40c-21.7,0-39.4,17.1-39.4,40C549.5,404.1,567.2,421.8,588.9,421.8z M665.8,306.5
		c0-2.8-1.6-4.4-4.4-4.4h-8.5v-11.9h14.3c8.7,0,12.3,3.6,12.3,12.3v112.9c0,3,1.6,4.4,4.4,4.4h8.5v11.9h-14.3
		c-8.7,0-12.3-3.6-12.3-12.3V306.5z M767.8,369.3h5.6v-1.2c0-21.1-7.6-28.6-26.2-28.6c-5,0-19.7,1.4-19.7,8.9v6.4h-13.1v-9.7
		c0-14.1,24.1-17.1,33-17.1c32,0,39.6,17.1,39.6,38.8v48.5c0,3,1.6,4.4,4.4,4.4h8.5v11.9h-13.9c-8.7,0-12.1-3.8-12.1-12.1
		c0-4.4,0.2-7.4,0.2-7.4h-0.4c0.2,0-8.2,21.9-33.6,21.9c-16.9,0-34.4-9.9-34.4-30C705.8,370.5,750.3,369.3,767.8,369.3z M742.5,422.4
		c19.3,0,31-20.1,31-37.6v-4.6h-5.8c-15.9,0-47.7,0.4-47.7,23.1C719.9,412.7,727.4,422.4,742.5,422.4z"/>
	<path fill="#D1AD54" d="M526.5,62.4h-5H390.8V0h-15.1v62.4H247.5h-5c-17.8,0-24.8,7.7-24.8,25.6v21.7h17.1V91c0-6.1,2.9-9.5,9.4-9.5
		h3.2h10.7l113.2,106.1l-117,109.7l10.3,11L382.4,198l117.7,110.4l10.3-11l-117-109.7L506.6,81.5h14.9h3.2c6.5,0,9.9,3.4,9.9,9.5
		v18.7h17.1V87.9C551.7,70.1,544.3,62.4,526.5,62.4z M375.7,81.5v89.5l-95.4-89.5H375.7z M390.8,169.5v-88h93.8L390.8,169.5z"/>
</svg>
