<?xml version="1.0" encoding="utf-8"?>
<!DOCTYPE svg PUBLIC "-//W3C//DTD SVG 1.1//EN" "http://www.w3.org/Graphics/SVG/1.1/DTD/svg11.dtd">
<svg version="1.1" id="path" xmlns="http://www.w3.org/2000/svg" viewBox="0 0 803.4 501">
	<path fill="#cccccc" d="M508.2,0.4c-19.3,0-27.3,8-27.3,27.3v30.7C459.2,23.4,420.4,0,376.3,0c-44,0-82.7,23.2-104.4,58V27.7
		c0-19.3-8-27.3-27.3-27.3H221v18.8h20.2c6.6,0,10.4,3.3,10.4,10.4V330h20.2V188.1c21.8,34.8,60.4,58,104.4,58
		c44.1,0,82.9-23.4,104.6-58.3V330h20.2V29.6c0-7.1,3.8-10.4,10.4-10.4h20.2V0.4H508.2z M376.3,17.4c53.3,0,97.5,39.7,104.6,91.1v29
		c-0.8,6.1-2.2,12-4,17.7H275.7c-1.7-5.3-3-10.7-3.8-16.3v-31.8C279.5,56.5,323.4,17.4,376.3,17.4z M376.3,228.7
		c-39.7,0-74.4-22.1-92.4-54.6h184.9C450.7,206.6,416,228.7,376.3,228.7z"/>
	<path fill="#cccccc" d="M16.8,329.2c0-2.8-1.6-4.4-4.4-4.4H4V313h14.2c8.6,0,12.2,3.6,12.2,11.8v42.6c0,4.6-0.4,8.2-0.4,8.2h0.4
		c3.8-9.6,17.2-25,39.8-25c25,0,33.8,14.2,33.8,39v47.8c0,3,1.6,4.4,4.4,4.4h8.4v11.8h-14.2c-8.6,0-12.2-3.6-12.2-12.2v-48.2
		c0-15.8-2.4-29.8-22-29.8c-17,0-31.8,11.8-36.4,28.6c-1.2,4-1.6,8.6-1.6,13.4v48.2H16.8V329.2z M182,350.6
		c29.4,0,53.2,22.4,53.2,52.2c0,30.4-23.8,53.2-53,53.2c-29.4,0-53.2-22.8-53.2-53.2C129,373,152.8,350.6,182,350.6z M182.2,443.8
		c21.4,0,39-17.6,39-41c0-22.8-17.6-39.8-39-39.8c-21.6,0-39.2,17-39.2,39.8C143,426.2,160.6,443.8,182.2,443.8z M260.6,369.2
		c0-2.8-1.6-4.4-4.4-4.4h-8.4V353h13.8c8.6,0,12,3.6,12,10.6c0,4-0.2,6.8-0.2,6.8h0.4c0,0,8-19.8,34.6-19.8c27,0,43.8,21.6,43.8,52.8
		c0,31.8-19,52.6-45,52.6c-24.6,0-33-19-33-19h-0.4c0,0,0.4,3.6,0.4,8.8v47.8h-13.6V369.2z M305.8,444c17.8,0,32.4-15,32.4-40.6
		c0-24.6-13-40.4-31.8-40.4c-16.8,0-32.6,12-32.6,40.6C273.8,423.8,284.8,444,305.8,444z M379,369.2c0-2.8-1.6-4.4-4.4-4.4h-8.4V353
		h14.2c8.6,0,12.2,3.6,12.2,12.2v72.2c0,3,1.6,4.4,4.4,4.4h8.4v11.8h-14.2c-8.6,0-12.2-3.6-12.2-12.2V369.2z M378.6,313h13.2v17.2
		h-13.2V313z M428.2,369.2c0-2.8-1.6-4.4-4.4-4.4h-8.4V353h13.8c8.6,0,12,3.6,12,10.6c0,4-0.2,6.8-0.2,6.8h0.4c0,0,8-19.8,34.6-19.8
		c27,0,43.8,21.6,43.8,52.8c0,31.8-19,52.6-45,52.6c-24.6,0-33-19-33-19h-0.4c0,0,0.4,3.6,0.4,8.8v47.8h-13.6V369.2z M473.4,444
		c17.8,0,32.4-15,32.4-40.6c0-24.6-13-40.4-31.8-40.4c-16.8,0-32.6,12-32.6,40.6C441.4,423.8,452.4,444,473.4,444z M589.2,350.6
		c29.4,0,53.2,22.4,53.2,52.2c0,30.4-23.8,53.2-53,53.2c-29.4,0-53.2-22.8-53.2-53.2C536.2,373,560,350.6,589.2,350.6z M589.4,443.8
		c21.4,0,39-17.6,39-41c0-22.8-17.6-39.8-39-39.8c-21.6,0-39.2,17-39.2,39.8C550.2,426.2,567.8,443.8,589.4,443.8z M665.8,329.2
		c0-2.8-1.6-4.4-4.4-4.4H653V313h14.2c8.6,0,12.2,3.6,12.2,12.2v112.2c0,3,1.6,4.4,4.4,4.4h8.4v11.8H678c-8.6,0-12.2-3.6-12.2-12.2
		V329.2z M767.2,391.6h5.6v-1.2c0-21-7.6-28.4-26-28.4c-5,0-19.6,1.4-19.6,8.8v6.4h-13v-9.6c0-14,24-17,32.8-17
		c31.8,0,39.4,17,39.4,38.6v48.2c0,3,1.6,4.4,4.4,4.4h8.4v11.8h-13.8c-8.6,0-12-3.8-12-12c0-4.4,0.2-7.4,0.2-7.4h-0.4
		c0.2,0-8.2,21.8-33.4,21.8c-16.8,0-34.2-9.8-34.2-29.8C705.6,392.8,749.8,391.6,767.2,391.6z M742,444.4c19.2,0,30.8-20,30.8-37.4
		v-4.6H767c-15.8,0-47.4,0.4-47.4,23C719.6,434.8,727,444.4,742,444.4z"/>
</svg>
